<svg width="15" height="23" viewBox="0 0 15 23" fill="none" xmlns="http://www.w3.org/2000/svg">
<path d="M15 2.58898V0.243257C15 0.0399404 14.7574 -0.0723389 14.5935 0.0520786L0.387649 10.7368C0.266951 10.8272 0.169286 10.9429 0.102105 11.0752C0.0349231 11.2075 0 11.3528 0 11.5C0 11.6472 0.0349231 11.7925 0.102105 11.9248C0.169286 12.0571 0.266951 12.1728 0.387649 12.2632L14.5935 22.9479C14.7605 23.0723 15 22.9601 15 22.7567V20.411C15 20.2623 14.9275 20.1197 14.8078 20.0287L3.46327 11.5015L14.8078 2.97134C14.9275 2.8803 15 2.73767 15 2.58898Z" fill="black"/>
</svg>
