<svg width="15" height="24" viewBox="0 0 15 24" fill="none" xmlns="http://www.w3.org/2000/svg">
<path d="M14.6123 11.202L0.406513 0.0540712C0.369392 0.0247091 0.324782 0.00646194 0.277805 0.00142494C0.230828 -0.00361207 0.18339 0.00476545 0.140938 0.0255955C0.0984868 0.0464256 0.0627441 0.0788635 0.0378142 0.119184C0.0128844 0.159504 -0.000221256 0.206071 2.82612e-06 0.253537V2.70095C2.82612e-06 2.85609 0.0724816 3.0049 0.192229 3.09989L11.5367 11.9999L0.192229 20.8998C0.0693303 20.9948 2.82612e-06 21.1436 2.82612e-06 21.2988V23.7462C2.82612e-06 23.9583 0.242648 24.0755 0.406513 23.9457L14.6123 12.7977C14.733 12.7031 14.8307 12.5821 14.8979 12.4438C14.9651 12.3055 15 12.1537 15 11.9999C15 11.846 14.9651 11.6942 14.8979 11.5559C14.8307 11.4177 14.733 11.2966 14.6123 11.202Z" fill="black"/>
</svg>
